<svg width="51" height="44" viewBox="0 0 51 44" fill="none" xmlns="http://www.w3.org/2000/svg"><g clip-path="url(#clip0_1_1446)"><path fill-rule="evenodd" clip-rule="evenodd" d="M2.96664 43.4557c.36719.0101 1.69702-.0908 2.23292-.1311l4.58494-.5041c2.3719-.1613 4.7338-.2924 7.056-.0303 1.449.1614 2.878.4134 4.2773.978 1.0917.5344 2.4017.0605 2.9276-1.0485.526-1.1091.0596-2.44-1.0321-2.9744-1.3993-.8066-2.8482-1.3611-4.3368-1.7846 1.4588-.6553 2.9276-1.3712 4.3865-2.1476 3.6719-1.9761 7.3041-4.3455 10.6485-7.0577 1.6772-1.3511 3.2651-2.8029 4.7537-4.3254 1.5283-1.5628 2.9474-3.1861 4.2475-4.8799 4.2773-5.6059 7.2545-11.66546 8.237-17.64438.1985-.83685-.3176-1.683776-1.1512-1.8854256-.8336-.2016504-1.6573.3226396-1.8558 1.1695656-1.5581 5.20257-5.0414 10.12284-9.3882 14.71034-1.3298 1.4015-2.7589 2.7626-4.2277 4.1036-1.4489 1.3208-2.9474 2.5912-4.4857 3.8414-3.8803 3.1659-8.0187 6.0394-12.1769 8.3483-1.6871.9377-3.3642 1.7846-5.0216 2.5408.4466-.7259.8833-1.4519 1.2902-2.208.6748-1.2503 1.2802-2.5106 1.8657-3.8112.4466-.7361.2183-1.704-.5061-2.1577-.7245-.4537-1.6772-.2218-2.1238.5142-.8336 1.0587-1.6871 2.0669-2.5703 3.0752-.86342.9881-1.75659 1.9157-2.69938 2.8332-.784.7965-1.88558 1.8249-3.0467 2.7726-.8237.6655-1.66725 1.2906-2.49095 1.4418-1.647404.3933-2.034444 1.4418-2.143609 1.6334-.3076475.6453-.853477 4.517 2.748979 4.6279z" fill="#E10303"/></g><defs><clipPath id="clip0_1_1446"><path fill="#fff" transform="rotate(-180 25.5 22)" d="M0 0h51v44H0z"/></clipPath></defs></svg>