<svg width="52" height="44" viewBox="0 0 52 44" fill="none" xmlns="http://www.w3.org/2000/svg"><g clip-path="url(#clip0_1_1444)"><path fill-rule="evenodd" clip-rule="evenodd" d="M48.374 43.4556c-.3572.0202-1.697-.0907-2.2329-.121l-4.5849-.5041c-2.3719-.1613-4.7338-.2924-7.0561-.0303-1.4489.1614-2.878.4134-4.2773.978-1.0916.5344-2.4016.0605-2.9276-1.0485-.526-1.1091-.0595-2.44 1.0321-2.9744 1.3993-.8066 2.8482-1.3611 4.3369-1.7846-1.4589-.6553-2.9276-1.3712-4.3865-2.1475-3.6719-1.9762-7.3041-4.3456-10.6486-7.0578-1.6771-1.351-3.265-2.8029-4.7536-4.3254-1.5283-1.5628-2.94747-3.186-4.24753-4.8799C4.35068 13.9542 1.37345 7.89464.390964 1.91573.192482 1.07888.708535.23195 1.54216.0302999 2.37579-.17135 3.19949.35294 3.39797 1.19987 4.95605 6.40244 8.43942 11.3227 12.7862 15.9102c1.3298 1.4015 2.7589 2.7626 4.2276 4.1036 1.449 1.3208 2.9475 2.5912 4.4857 3.8414 3.8804 3.1659 8.0187 6.0395 12.1769 8.3483 1.6871.9377 3.3643 1.7846 5.0216 2.5408-.4466-.7259-.8832-1.4518-1.2901-2.208-.6748-1.2503-1.2802-2.5106-1.8657-3.8112-.4466-.736-.2184-1.704.5061-2.1577.7244-.4537 1.6772-.2218 2.1237.5142.8337 1.0587 1.6871 2.0669 2.5704 3.0752.8634.9881 1.7566 1.9157 2.6993 2.8332.7741.8066 1.8757 1.835 3.0368 2.7827.8237.6655 1.6673 1.2906 2.491 1.4418 1.6375.3933 2.0344 1.4418 2.1337 1.6334.3275.6251.8733 4.4968-2.7292 4.6077z" fill="#E10303"/></g><defs><clipPath id="clip0_1_1444"><path fill="#fff" transform="rotate(-180 25.6709 22)" d="M0 0h51v44H0z"/></clipPath></defs></svg>